<svg xmlns="http://www.w3.org/2000/svg" width="320" height="309" viewBox="0 0 319 309">
  <path style="stroke:none;fill-rule:evenodd;fill:#e0234e;fill-opacity:1" d="M184.88 5.13c-2.18 0-4.21.46-6.08 1.09a17.19 17.19 0 0 1 7.24 10.16c.08.54.24.93.32 1.48.07.47.15.94.15 1.4.31 6.88-1.8 7.74-3.27 11.8a16.73 16.73 0 0 0 1.1 15.4c.22.54.53 1.16.93 1.71-2.97-19.76 13.47-22.73 16.51-28.9.24-5.4-4.2-8.99-7.71-11.49a17.19 17.19 0 0 0-9.2-2.66Zm24.77 4.45c-.31 1.8-.08 1.33-.15 2.26-.08.63-.08 1.41-.16 2.04-.16.62-.31 1.24-.55 1.87-.15.63-.38 1.25-.62 1.88-.31.62-.54 1.17-.86 1.8-.23.3-.38.62-.62.93l-.47.7c-.39.55-.77 1.1-1.17 1.57-.46.46-.85 1.01-1.4 1.4v.08c-.47.39-.93.86-1.48 1.25-1.63 1.25-3.5 2.19-5.22 3.36-.54.39-1.1.7-1.56 1.17-.54.4-1.01.78-1.48 1.25-.54.47-.93.94-1.4 1.48-.39.47-.86 1.02-1.17 1.57-.39.54-.78 1.1-1.09 1.64-.3.62-.54 1.17-.86 1.8-.23.62-.46 1.17-.62 1.8-.23.7-.39 1.32-.54 1.95-.08.3-.08.7-.16 1.01-.08.31-.08.63-.16.94 0 .62-.07 1.33-.07 1.95 0 .47 0 .94.07 1.4 0 .63.08 1.26.24 1.96a16 16 0 0 0 .39 1.88c.23.62.39 1.25.62 1.87.16.4.4.78.55 1.1l-17.92-6.96c-3.04-.86-6-1.64-9.04-2.34l-4.91-1.17a144.1 144.1 0 0 0-14.18-2.11c-.15 0-.23-.08-.39-.08a138.96 138.96 0 0 0-24.15-.31c-4.75.3-9.5.93-14.26 1.71-1.16.16-2.34.4-3.5.63-2.42.47-4.75 1.02-7.02 1.56l-3.5.94c-1.17.47-2.26 1.02-3.35 1.48l-2.57 1.18c-.16.07-.31.07-.4.15-.77.4-1.47.7-2.17 1.1a34.25 34.25 0 0 0-2.96 1.48c-.55.23-1.1.55-1.56.78-.24.16-.55.31-.7.4-.7.38-1.4.77-2.03 1.16-.7.4-1.32.78-1.87 1.18-.54.39-1.09.7-1.56 1.09-.08.08-.15.08-.23.16-.47.3-1.01.7-1.48 1.09l-.16.16-1.17.93c-.15.08-.3.24-.46.32-.4.3-.78.7-1.17 1.01-.08.16-.23.24-.31.31-.47.47-.94.86-1.4 1.33-.08 0-.08.08-.16.16-.47.39-.93.86-1.4 1.33-.08.07-.08.15-.16.15-.39.4-.78.78-1.17 1.25-.15.16-.39.31-.54.47-.4.47-.86.94-1.33 1.4-.08.16-.23.24-.31.4-.62.62-1.17 1.25-1.79 1.87l-.23.24a45.96 45.96 0 0 1-3.98 3.83 44.28 44.28 0 0 1-4.36 3.43 58.87 58.87 0 0 1-4.68 2.97c-1.55.86-3.2 1.64-4.9 2.35-1.64.7-3.35 1.32-5.07 1.87-3.27.7-6.62 2.03-9.5 2.27-.63 0-1.33.15-1.95.23-.7.16-1.33.31-1.95.47l-1.87.7c-.62.24-1.24.55-1.87.86-.54.4-1.17.7-1.71 1.1-.55.39-1.1.86-1.56 1.32-.55.4-1.1.94-1.56 1.41-.47.55-.94 1.02-1.32 1.56-.4.63-.86 1.17-1.17 1.8-.4.55-.78 1.17-1.1 1.8-.3.7-.61 1.32-.85 2.03a15.22 15.22 0 0 0-1.09 3.9c0 .08-.08.16-.08.24-.15.7-.15 1.64-.23 2.1-.08.55-.16 1.02-.16 1.57 0 .31 0 .7.08 1.02.08.54.16 1.01.31 1.48.16.47.31.94.55 1.4v.08c.23.47.54.94.86 1.41.3.47.62.94 1 1.4.4.4.86.87 1.33 1.26.47.47.93.86 1.48 1.25 1.87 1.64 2.34 2.18 4.76 3.43.38.24.77.4 1.24.63.08 0 .16.08.24.08 0 .15 0 .23.07.39a15.98 15.98 0 0 0 1.02 3.75c.23.47.39.94.62 1.4.07.16.15.32.23.4.31.62.63 1.17.94 1.71l1.17 1.64c.38.47.85 1.02 1.32 1.49.47.47.93.86 1.48 1.33 0 0 .08.07.16.07a16.48 16.48 0 0 0 4.9 2.97c.47.24 1.02.4 1.56.55.08.08.16.08.31.16l1.02.23c-.24 4.22-.32 8.2.3 9.61.7 1.56 4.14-3.2 7.57-8.67-.47 5.39-.78 11.72 0 13.6.85 1.95 5.53-4.15 9.58-10.87 55.24-12.8 105.64 25.47 110.94 79.53-1.01-8.44-11.37-13.12-16.12-11.95-2.34 5.78-6.32 13.2-12.7 17.81.54-5.16.31-10.47-.78-15.63a50.53 50.53 0 0 1-9.66 19.7c-7.4.54-14.8-3.05-18.7-8.45-.31-.23-.39-.7-.62-1.01-.24-.55-.47-1.1-.63-1.64a6.47 6.47 0 0 1-.46-1.64c-.08-.55-.08-1.1-.08-1.72v-1.17c.08-.55.23-1.1.38-1.64.16-.55.32-1.1.55-1.64.31-.55.55-1.1.93-1.64 1.33-3.75 1.33-6.8-1.09-8.6a8.87 8.87 0 0 0-1.48-.78c-.3-.08-.7-.23-1-.31-.24-.08-.4-.16-.63-.24-.55-.15-1.1-.3-1.64-.39a5.9 5.9 0 0 0-1.63-.23c-.55-.08-1.17-.16-1.72-.16-.39 0-.78.08-1.16.08-.63 0-1.18.08-1.72.23-.55.09-1.09.16-1.64.32-.54.15-1.09.31-1.63.55-.55.23-1.01.47-1.56.7-.47.24-.94.55-1.48.78-18.15 11.87-7.33 39.69 5.06 47.73-4.67.86-9.43 1.88-10.75 2.9l-.16.15a73.5 73.5 0 0 0 10.52 5.23 256.77 256.77 0 0 0 12.62 3.75v.08a75.17 75.17 0 0 0 19.64 1.4c34.51-2.41 62.8-28.74 67.94-63.43l.46 2.04c.24 1.4.55 2.88.7 4.37v.08c.16.7.24 1.4.32 2.03v.31c.07.7.15 1.4.15 2.03.08.86.16 1.72.16 2.58v1.25c0 .4.08.86.08 1.25 0 .47-.08.94-.08 1.4v1.1c0 .55-.08 1.02-.08 1.56 0 .32 0 .63-.08 1.02 0 .55-.08 1.1-.08 1.72-.07.23-.07.47-.07.7l-.24 1.8c0 .23 0 .47-.08.7-.08.78-.23 1.49-.31 2.26v.16c-.16.7-.31 1.49-.46 2.2v.23l-.47 2.1c0 .08-.08.24-.08.32-.16.7-.31 1.4-.55 2.1v.24c-.23.78-.46 1.49-.62 2.19-.08.08-.08.16-.08.16l-.7 2.34c-.3.78-.54 1.48-.86 2.26-.3.79-.54 1.57-.85 2.27-.31.78-.63 1.48-.94 2.26h-.08c-.31.7-.62 1.49-1 2.19l-.24.55c-.08.08-.08.15-.16.23a73.9 73.9 0 0 1-21.89 26.25c-.63.4-1.25.86-1.87 1.33-.16.16-.4.23-.55.39-.54.39-1.09.78-1.7 1.17l.22.47h.08l3.27-.47h.08c2.03-.31 4.05-.7 6.08-1.1a13.7 13.7 0 0 0 1.71-.38l1.1-.24c.54-.08 1.08-.23 1.63-.31.47-.16.93-.23 1.4-.39a147.45 147.45 0 0 0 22.6-7.5 124.88 124.88 0 0 1-48.39 39.6c8.97-.62 17.92-2.1 26.57-4.6 31.4-9.3 57.8-30.47 73.63-58.98a124.93 124.93 0 0 1-20.96 50.23c7.56-5 14.5-10.78 20.8-17.34a123.94 123.94 0 0 0 32.8-66.4 124.64 124.64 0 0 1 2.26 37.65c56.25-78.67 4.67-160.23-16.9-181.72-.09-.16-.16-.23-.16-.39-.08.08-.08.08-.08.16 0-.08 0-.08-.08-.16 0 .94-.08 1.88-.15 2.81-.24 1.8-.47 3.52-.78 5.24-.4 1.72-.86 3.44-1.33 5.15a63.36 63.36 0 0 1-1.87 5c-.7 1.57-1.48 3.2-2.34 4.77a58.47 58.47 0 0 1-6 8.67c-1.16 1.4-2.41 2.66-3.66 3.9-.77.71-1.48 1.34-2.25 1.96l-1.8 1.56c-1.4 1.1-2.8 2.11-4.36 3.05a53.93 53.93 0 0 1-4.6 2.66c-1.63.78-3.27 1.48-4.9 2.18a54.76 54.76 0 0 1-5.07 1.64c-1.72.47-3.5.86-5.22 1.18a59.92 59.92 0 0 1-9.04.78c-1.79 0-3.58-.16-5.3-.31-1.79-.16-3.58-.4-5.3-.79-1.78-.3-3.5-.78-5.21-1.32h-.08c1.71-.16 3.43-.32 5.14-.63a56.27 56.27 0 0 0 10.29-2.81c1.7-.63 3.34-1.4 4.9-2.19a54.48 54.48 0 0 0 4.68-2.58c1.48-1.01 2.96-2.03 4.36-3.12 1.4-1.1 2.73-2.27 3.97-3.52 1.33-1.17 2.5-2.5 3.67-3.83a77 77 0 0 0 3.27-4.22c.15-.23.31-.54.47-.78.77-1.25 1.56-2.5 2.26-3.75a53.78 53.78 0 0 0 4.2-9.76c.55-1.64.94-3.36 1.33-5.08.3-1.8.62-3.52.78-5.23.15-1.8.3-3.6.3-5.32 0-1.25-.07-2.5-.15-3.75-.15-1.8-.39-3.51-.62-5.23-.31-1.8-.7-3.52-1.17-5.24-.55-1.64-1.09-3.35-1.71-5a55.03 55.03 0 0 0-2.18-4.84c-.86-1.56-1.72-3.12-2.66-4.6a86.04 86.04 0 0 0-3.1-4.3 164.94 164.94 0 0 0-3.6-3.99 48.59 48.59 0 0 0-2.02-1.95c-3.5-2.74-7.17-5.32-10.83-7.66-.54-.31-1.01-.55-1.56-.78a30.3 30.3 0 0 0-7.4-3.28Zm0 0"/>
</svg>
