<svg xmlns="http://www.w3.org/2000/svg" width="25" height="24" viewBox="0 0 24 24">
  <path style="stroke:none;fill-rule:evenodd;fill:#e0234e;fill-opacity:1" d="M13.9.4c-.16 0-.31.03-.45.08.27.19.46.47.54.8l.03.1v.12c.03.53-.13.6-.24.91-.16.4-.13.84.08 1.2l.07.13c-.22-1.53 1.01-1.76 1.24-2.24.02-.42-.31-.7-.58-.9-.2-.13-.44-.2-.69-.2Zm1.86.34c-.02.14 0 .1-.01.18l-.01.16-.04.14a1.09 1.09 0 0 1-.11.29l-.05.07-.04.06-.08.12-.1.1v.01l-.12.1c-.12.1-.26.17-.4.26l-.1.09a1.3 1.3 0 0 0-.12.1l-.1.12a.7.7 0 0 0-.1.12l-.08.12c-.01.05-.03.1-.06.14l-.04.14c-.02.06-.04.1-.04.15l-.02.08-.01.08v.25c0 .06 0 .1.02.16l.03.15.04.14.05.09-1.35-.55-.68-.18-.37-.09c-.35-.07-.7-.13-1.06-.16h-.03a10 10 0 0 0-2.88.1l-.26.05-.53.12-.26.07-.25.12-.2.09-.03.01-.16.09-.22.11-.12.06-.05.04-.15.08-.14.1-.12.08-.02.01-.1.09-.02.01-.09.07-.03.03-.09.08-.02.02-.1.1-.02.02-.1.1-.02.01-.08.1-.04.03-.1.11-.03.03-.13.15-.02.02a3.55 3.55 0 0 1-.62.56 4.19 4.19 0 0 1-1.1.56c-.25.05-.5.16-.72.17l-.14.02-.15.04-.14.05-.14.07c-.04.03-.09.05-.12.09a1 1 0 0 0-.12.1l-.12.1-.1.13-.09.14a.83.83 0 0 0-.08.14c-.02.05-.05.1-.06.16-.04.1-.07.2-.08.3l-.01.02-.02.16a.68.68 0 0 0 0 .2c0 .05 0 .08.02.12l.04.1v.01l.06.11.08.11a2.44 2.44 0 0 0 .21.2c.14.12.18.17.36.26l.1.05a1.5 1.5 0 0 0 .08.32l.06.12.01.03.07.13.1.13c.02.04.06.08.1.11l.1.1.02.01a1.24 1.24 0 0 0 .48.28h.02l.08.03c-.02.33-.03.63.02.74.05.13.31-.25.57-.67-.04.42-.06.91 0 1.06.06.15.42-.33.72-.85 4.14-1 7.92 1.98 8.32 6.18-.08-.66-.85-1.02-1.21-.93a3.19 3.19 0 0 1-.95 1.39c.04-.4.02-.82-.06-1.22a4.01 4.01 0 0 1-.72 1.53 1.62 1.62 0 0 1-1.4-.65c-.03-.02-.04-.06-.05-.09a.69.69 0 0 1-.05-.12.4.4 0 0 1-.04-.13v-.23l.02-.12.05-.13.07-.13c.1-.29.1-.52-.08-.66l-.11-.07-.08-.02-.05-.02a1.38 1.38 0 0 0-.25-.05H7.1c-.05 0-.09 0-.13.02a1.53 1.53 0 0 0-.25.07l-.11.05-.11.06c-1.36.92-.55 3.08.38 3.7-.35.07-.71.15-.8.23l-.02.01a5.37 5.37 0 0 0 1.74.7c.48.11.98.14 1.47.12a5.64 5.64 0 0 0 5.1-4.93l.03.16.05.34.02.16v.03l.02.15V16.5l.01.1v.2l-.01.11v.08l-.01.14v.05l-.02.14v.05l-.03.18v.01l-.04.17v.02l-.03.16-.01.03-.04.16v.02l-.05.17v.01l-.05.18-.07.18-.06.18L14 19c-.03.05-.05.12-.09.17l-.01.04-.01.02c-.39.8-.95 1.5-1.65 2.04l-.14.1-.04.04-.13.09.02.03.25-.03a9.4 9.4 0 0 0 .6-.12l.07-.02.13-.02c.03-.02.07-.02.1-.03.58-.15 1.15-.35 1.7-.58a9.44 9.44 0 0 1-3.63 3.07 9.35 9.35 0 0 0 1.99-.35 9.42 9.42 0 0 0 5.52-4.59 9.92 9.92 0 0 1-1.57 3.9c.57-.39 1.09-.83 1.56-1.34a9.76 9.76 0 0 0 2.46-5.16c.2.96.26 1.95.17 2.92 4.22-6.1.35-12.44-1.26-14.11l-.02-.03v.01L20 5.04a11.4 11.4 0 0 1-.07.63l-.1.4a6.5 6.5 0 0 1-.32.75c-.13.24-.28.47-.45.68l-.27.3a3 3 0 0 1-.17.15l-.13.12a3.35 3.35 0 0 1-.68.45l-.36.17-.39.12-.39.1a3.91 3.91 0 0 1-1.86-.13l.38-.05a4.06 4.06 0 0 0 1.5-.59l.32-.24a3.33 3.33 0 0 0 .57-.57c.09-.1.17-.22.25-.33l.03-.06a4.28 4.28 0 0 0 .49-1.05l.1-.4.06-.4.02-.41c0-.1 0-.2-.02-.3a3.57 3.57 0 0 0-.13-.81l-.13-.39a3.2 3.2 0 0 0-.36-.73 7.1 7.1 0 0 0-.5-.65 10.56 10.56 0 0 0-1.08-.8c-.18-.11-.36-.2-.56-.26Zm0 0"/>
</svg>
